<svg xmlns="http://www.w3.org/2000/svg" width="360" height="58" viewBox="0 0 360 58"><defs><style>.cls-1{fill:#231815;fill-rule:evenodd}</style></defs><path id="text" class="cls-1" d="M123.681 1.162s-8.007 32.825-8.627 35.395c-.645-2.57-8.648-35.395-8.648-35.395H85.843v55.594h13.506V23.349c1.208 3.926 10.255 33.408 10.255 33.408h10.889s9.038-29.527 10.246-33.427v33.426h13.5V1.162h-20.558zM190.705 0c-17.2 0-28.759 11.643-28.759 28.958s11.558 28.95 28.759 28.95 28.761-11.635 28.761-28.95S207.917 0 190.705 0zm0 44.745c-9.7 0-14.114-8.189-14.114-15.787s4.411-15.8 14.114-15.8 14.116 8.194 14.116 15.8-4.421 15.788-14.116 15.788zM331.233.1c-17.195 0-28.756 11.635-28.756 28.944S314.038 58 331.233 58 360 46.364 360 29.045 348.428.1 331.233.1zm.084 44.751c-9.7 0-14.114-8.19-14.114-15.807 0-7.6 4.413-15.781 14.114-15.781 9.685 0 14.12 8.184 14.12 15.781 0 7.618-4.437 15.808-14.12 15.808zM271.149 1.168v34.157c-1.221-1.972-19.38-34.158-19.38-34.158h-14.621v55.61h13.635V24.263c1.215 1.981 19.388 32.514 19.388 32.514H284.8V1.168h-13.651z"/><path id="border-02" class="cls-1" d="M58.4 56.756H0V38.217h58.4v18.539z"/><path id="border-01" d="M58.4 19.689H0V1.162h58.4v18.527z" fill="#2660ad" fill-rule="evenodd"/></svg>